<?xml version="1.0" standalone="no"?>
<!DOCTYPE svg PUBLIC "-//W3C//DTD SVG 1.1//EN" "http://www.w3.org/Graphics/SVG/1.1/DTD/svg11.dtd" >
<svg xmlns="http://www.w3.org/2000/svg">
<metadata>
This is a custom SVG font generated by IcoMoon.
<iconset grid="16"></iconset>
</metadata>
<defs>
<font id="icons" horiz-adv-x="512" >
<font-face units-per-em="512" ascent="480" descent="-32" />
<missing-glyph horiz-adv-x="512" />
<glyph class="hidden" unicode="&#xf000;" d="M0,480L 512 -32L0 -32 z" horiz-adv-x="0" />
<glyph unicode="&#xe000;" d="M 256-32c 141.385,0, 256,114.615, 256,256S 397.385,480, 256,480S0,365.385,0,224S 114.615-32, 256-32z M 256,432
	c 114.875,0, 208-93.125, 208-208s-93.125-208-208-208S 48,109.125, 48,224S 141.125,432, 256,432z M 352.049,89.63
	C 332.462,122.204, 296.777,144, 256,144c-40.778,0-76.462-21.796-96.049-54.37l-41.164,24.698C 146.767,160.863, 197.745,192, 256,192
	c 58.254,0, 109.232-31.137, 137.213-77.672L 352.049,89.63zM 383.521,339.88 C 385.663,331.308 380.451,322.621 371.88,320.478 C 363.067,318.253 352.619,314.418 343.412,309.803 C 348.736,304.088 351.999,296.427 351.999,288 C 351.999,270.327 337.672,256 319.999,256 C 302.326,256 287.999,270.327 287.999,288 C 287.999,288.585 288.017,289.165 288.048,289.742 C 289.064,313.469 310.654,329.215 328.844,338.311 C 346.215,346.996 363.395,351.341 364.118,351.522 C 372.691,353.666 381.377,348.453 383.521,339.88 ZM 128.479,339.88c 2.144,8.573, 10.83,13.786, 19.403,11.642c 0.723-0.181, 17.903-4.526, 35.274-13.211
	c 18.19-9.096, 39.78-24.842, 40.796-48.569c 0.031-0.577, 0.049-1.157, 0.049-1.742c0-17.673-14.327-32-32-32s-32,14.327-32,32
	c0,8.427, 3.263,16.088, 8.587,21.803c-9.207,4.615-19.655,8.45-28.468,10.675C 131.549,322.621, 126.337,331.308, 128.479,339.88z" data-tags="angry, emoticon, smiley, face, rage" />
<glyph unicode="&#xe001;" d="M 512,224L 256,480L 256,320L 0.001,320L0,128L 256,128L 256-32 z" data-tags="arrow-right, right, next" />
<glyph unicode="&#xe002;" d="M0,224L 256-32L 256,128L 511.999,128L 512,320L 256,320L 256,480 z" data-tags="arrow-left, left, previous" />
<glyph unicode="&#xe003;" d="M0,272l0-96 c0-8.836, 7.164-16, 16-16l 480,0 c 8.836,0, 16,7.164, 16,16l0,96 c0,8.836-7.164,16-16,16L 16,288 C 7.164,288,0,280.836,0,272z" data-tags="minus, minimize, subtract" />
<glyph unicode="&#xe004;" d="M 496,288L 320,288 L 320,464 c0,8.836-7.164,16-16,16l-96,0 c-8.836,0-16-7.164-16-16l0-176 L 16,288 c-8.836,0-16-7.164-16-16l0-96 
	c0-8.836, 7.164-16, 16-16l 176,0 l0-176 c0-8.836, 7.164-16, 16-16l 96,0 c 8.836,0, 16,7.164, 16,16L 320,160 l 176,0 c 8.836,0, 16,7.164, 16,16l0,96 
	C 512,280.836, 504.836,288, 496,288z" data-tags="plus, add, sum" />
<glyph unicode="&#xe005;" d="M 634.269,248.752L 299.459,479.19l0-136.574 c-90.081-7.107-324.004-55.999-297.35-373.813c0,0, 106.534,196.577, 297.35,182.929
	l0-133.418 L 634.269,248.752z" horiz-adv-x="634.269" data-tags="share" />
<glyph unicode="&#xe006;" d="M 512,196.101l0,58.258 l-8.228,2.688l-62.371,20.363l-16.645,40.184l 31.992,67.689l-41.207,41.201l-7.717-3.917
	l-58.499-29.71l-40.176,16.645L 283.895,479.998l-58.259,0 l-2.684-8.235L 202.59,409.389L 162.425,392.75L 94.71,424.737l-41.192-41.2l 3.916-7.713
	l 29.706-58.518l-16.631-40.158L0,251.903l0-58.271 l 8.237-2.684l 62.373-20.367l 16.639-40.172l-31.984-67.696l 41.184-41.208l 7.725,3.924
	l 58.503,29.703l 40.174-16.642l 25.244-70.49l 58.263,0 l 2.692,8.23l 20.367,62.371l 40.176,16.641l 67.694-31.996l 41.205,41.212l-3.915,7.721
	l-29.71,58.492l 16.643,40.182L 512,196.101z M 256.005,142.411c-45.058,0-81.586,36.525-81.586,81.587
	c0,45.058, 36.527,81.589, 81.586,81.589c 45.058,0, 81.582-36.531, 81.582-81.589C 337.588,178.938, 301.062,142.411, 256.005,142.411z" data-tags="gear" />
<glyph unicode="&#xe007;" d="M 171.65,195.615l-105.979-105.986L-0.103,155.405l0-187.404 l 187.397,0 l-66.731,66.736l 105.983,105.995L 171.65,195.615z M 323.537,480
	l 66.724-66.73l-105.978-105.99l 54.893-54.885l 105.977,105.983l 65.776-65.781L 510.93,480 L 323.537,480 z" horiz-adv-x="510.826" data-tags="expand" />
<glyph unicode="&#xe008;" d="M 169.585,224A86.415,86.415 180 1 1 342.415,224A86.415,86.415 180 1 1 169.585,224zM 449.953,236.961c-6.413,96.894-84.094,174.575-180.988,180.988L 268.961,480 l-25.925,0 l0-62.047 
	C 146.141,411.535, 68.465,333.859, 62.047,236.961L0,236.961 l0-25.925 l 62.047,0 c 6.413-96.894, 84.094-174.575, 180.988-180.988L 243.039-32 l 25.925,0 l0,62.047 
	c 96.894,6.413, 174.575,84.094, 180.988,180.988L 512,211.039 l0,25.925 L 449.953,236.961 z M 268.961,64.707c-4.278-0.347-8.596-0.568-12.961-0.568s-8.687,0.226-12.961,0.568
	C 165.211,70.986, 102.986,133.211, 96.707,211.039c-0.347,4.278-0.568,8.596-0.568,12.961s 0.226,8.687, 0.568,12.961
	c 6.283,77.824, 68.504,140.054, 146.332,146.332c 4.278,0.347, 8.596,0.568, 12.961,0.568s 8.687-0.226, 12.961-0.568
	c 77.828-6.283, 140.049-68.508, 146.332-146.332c 0.347-4.278, 0.568-8.596, 0.568-12.961s-0.226-8.687-0.568-12.961
	C 409.014,133.211, 346.789,70.986, 268.961,64.707z" data-tags="find_me" />
<glyph unicode="&#xe009;" d="M 87.985,477.45C 97.319,480.482, 99.751,480.975, 106.535,478.060
			c 35.879-20.372, 75.362-58.014, 70.843-119.778c-3.18-43.776-63.055-60.465-67.033-96.837c-6.085-55.473, 92.209-172.859, 156.426-171.333
			c 48.394,1.152, 55.562,46.208, 105.206,57.206c 57.551,12.613, 113.802-92.14, 95.921-101.898C 261.484-225.634-186.762,287.232, 87.985,477.45z" horiz-adv-x="472.615" data-tags="contact" />
<glyph unicode="&#xe00a;" d="M 512-16c0-8.8-7.204-16-16-16L 16-32 c-8.8,0-16,7.2-16,16l0,96 c0,8.8, 7.2,16, 16,16l 480,0 c 8.796,0, 16-7.2, 16-16L 512-16 z M 512,272
	c0,8.8-7.204,16-16,16L 16,288 c-8.8,0-16-7.2-16-16l0-96 c0-8.8, 7.2-16, 16-16l 480,0 c 8.796,0, 16,7.2, 16,16L 512,272 z M 512,464c0,8.8-7.204,16-16,16L 16,480 C 7.2,480,0,472.8,0,464
	l0-96 c0-8.8, 7.2-16, 16-16l 480,0 c 8.796,0, 16,7.2, 16,16L 512,464 z" data-tags="collapse_menu" />
<glyph unicode="&#xe00b;" d="M 0.699,233.965c 2.423,58.668, 21.467,103.811, 47.928,141.087
			c 25.912,36.502, 63.351,66.235, 105.322,84.393c 45.543,19.681, 108.020,26.936, 162.004,14.174c 49.602-11.726, 90.062-36.727, 121.506-68.183
			c 31.794-31.794, 56.445-71.83, 68.183-121.506c 12.788-54.097, 5.245-116.811-14.174-162.017c-36.689-85.417-113.314-144.596-225.467-153.9
			c-6.306,0-12.613,0-18.907,0c-75.651,4.758-131.859,34.504-172.144,75.601C 34.691,84.699, 3.859,139.857, 0.025,216.432 M 102.637,364.263
			c-30.982-35.003-58.942-85.891-54.010-152.564c 4.683-63.326, 30.158-107.52, 66.835-141.1c 35.59-32.581, 87.814-57.981, 153.238-53.997
			c 62.514,3.809, 108.020,30.795, 141.087,66.822c 32.968,35.915, 57.669,85.267, 54.684,153.238c-2.71,61.552-32.868,109.755-66.822,141.087
			c-34.491,31.831-87.927,58.293-154.599,54.010C 178.626,427.626, 134.768,400.553, 102.637,364.263zM 255.875,412.191c 10.090,0.549, 20.742-5.008, 24.976-14.174
			c 4.745-10.228, 2.71-27.061, 2.71-41.172c0-37.651,0-69.545,0-108.020c0-7.692-0.774-17.558, 0.624-21.954
			c 1.623-5.132, 20.255-15.909, 25.026-19.219c 20.068-13.911, 33.817-22.54, 54.010-36.452c 9.079-6.256, 18.882-13.112, 19.568-25.65
			c 0.774-14.061-10.44-28.884-25.65-28.36c-12.962,0.45-20.43,8.229-29.034,14.186c-8.417,5.832-17.046,12.013-24.976,17.545
			c-18.769,13.1-20.005,12.45-36.527,24.751c-3.572,2.66-11.838,7.842-19.219,14.523c-7.293,6.619-7.143,5.869-11.714,12.188
			c-7.031,9.74-5.27,37.975-5.27,53.086c0,32.793, 0.512,61.627, 0.512,95.269C 230.9,380.61, 226.117,410.593, 255.875,412.191z" data-tags="clock" />
<glyph unicode="&#xe00c;" d="M0,224C0,365.384, 114.608,480, 256,480c 141.392,0, 256-114.616, 256-256c0-141.384-114.608-256-256-256C 114.608-32,0,82.616,0,224z M 384,256L 288,256 L 288,352 
	L 224,352 l0-96 L 128,256 l0-64 l 96,0 l0-96 l 64,0 L 288,192 l 96,0 L 384,256 z" data-tags="circled_plus" />
<glyph unicode="&#xe00d;" d="M0,224C0,365.384, 114.608,480, 256,480c 141.392,0, 256-114.616, 256-256c0-141.384-114.608-256-256-256C 114.608-32,0,82.616,0,224z M 128,256l0-64 l 256,0 
	L 384,256 L 128,256 z" data-tags="circled_minus" />
<glyph unicode="&#xe00e;" d="M 277.187-32L 138.971,106.216L 0.751-32L 0.751,480L 277.187,480 z" horiz-adv-x="277.943" data-tags="bookmark" />
<glyph unicode="&#xe00f;" d="M 483.556,481.752L 967.111-1.792L 935.14-33.752L 483.556,417.809L 31.96-33.752L0-1.792 	z" horiz-adv-x="967.111" data-tags="arrow-up" />
<glyph unicode="&#xe010;" d="M 483.556-33.752L0,449.781L 31.96,481.752L 483.556,30.168L 935.14,481.752L 967.111,449.792 	z" horiz-adv-x="967.111" data-tags="arrow-down" />
<glyph unicode="&#xe011;" d="M 384,448l 128,0 l0-288 L 384,160 L 384,448 z M 32,176c 18-4, 107.5-14, 160-16c-32-48-32-160-32-160c0-16, 14-32, 32-32c 18.376,0, 25.564,3.688, 31.5,7.5
	C 240,32, 259,80.5, 272,96s 80,64, 80,64L 352,416 C 327.5,432, 174,480, 96,480C 67,480, 37.6,463.332, 32,448c-9.5-26-32-162-32-240
	C0,195.5, 14,180, 32,176z" data-tags="thumb_down" />
<glyph unicode="&#xe012;" d="M0,477.111L 229.138,477.111L 229.138,247.973L0,247.973zM0,200.027L 229.138,200.027L 229.138-29.111L0-29.111zM 277.083,477.111L 506.222,477.111L 506.222,247.973L 277.083,247.973zM 277.083,200.027L 506.222,200.027L 506.222-29.111L 277.083-29.111zM 557.147,477.111L 786.286,477.111L 786.286,247.973L 557.147,247.973zM 557.147,200.027L 786.286,200.027L 786.286-29.111L 557.147-29.111z" horiz-adv-x="786.286" data-tags="thumbs" />
<glyph unicode="&#xe013;" d="M 649.049,257.433c 3.751,14.363, 5.759,29.435, 5.759,44.977C 654.81,400.437, 575.344,479.899, 477.318,479.899
	c-73.704,0-136.907-44.931-163.735-108.891c-23.045,27.079-57.356,44.281-95.701,44.281c-69.388,0-125.639-56.246-125.639-125.636
	c0-11.931, 1.699-23.459, 4.809-34.39C 40.384,234.482,0,180.083,0,116.179c0-81.724, 66.222-148.080, 148.038-148.080l 193.191,0 l0,124.775 
	l-79.764,0 l 122.268,148.15l 122.267-148.15l-79.769,0 l0-124.775 l 178.222,0 c 81.858,0, 148.081,66.354, 148.081,148.080
	C 752.537,182.461, 709.075,238.527, 649.049,257.433z" horiz-adv-x="752.537" data-tags="upload" />
<glyph unicode="&#xe014;" d="M 577.089,479.566C 396.898,369.091, 266.149,229.704, 207.402,159.755L 63.53,272.474L0,221.256l 248.599-252.823
	c 42.785,109.59, 178.285,323.777, 343.743,475.958L 577.089,479.566z" horiz-adv-x="592.34" data-tags="click" />
<glyph unicode="&#xe015;" d="M 566.695,277.671L 308.914,478.442c-0.979,0.757-2.182,0.957-3.206,1.603c-1.202,0.735-2.426,1.269-3.695,1.825
	c-2.315,1.024-4.586,1.87-7.034,2.293C 293.109,484.519, 291.261,484.541, 289.391,484.541c-1.892,0-3.718-0.022-5.565-0.378
	c-2.449-0.445-4.719-1.291-7.034-2.293c-1.291-0.557-2.515-1.091-3.718-1.825c-1.046-0.623-2.226-0.824-3.206-1.603L 12.088,277.671
	c-13.624-10.618-16.095-30.453-5.476-44.077l 11.309-14.514c 10.218-13.089, 28.783-15.583, 42.318-6.367l0-217.845 c0-17.274, 14.136-31.41, 31.41-31.41l 388.163,0 
	c 17.274,0, 31.41,14.136, 31.41,31.41L 511.199,217.99 l 5.632-4.385c 13.624-10.618, 33.458-8.147, 44.077,5.476l 11.309,14.514
	C 582.79,247.218, 580.341,267.030, 566.695,277.671z M 469.459,41.082c0-17.274-14.136-31.41-31.41-31.41l-103.891,0 l0,142.047 l-103.713,0 l0-142.047 L 132.23,9.672 
	c-17.274,0-31.41,14.136-31.41,31.41l0,182.984 c0,6.344-1.247,12.243-3.361,17.185l 191.933,149.482l 180.068-140.243L 469.459,41.082 z" horiz-adv-x="578.783" data-tags="home" />
<glyph unicode="&#xe016;" d="M 146.658,209.246A111.947,111.947 180 1 1 370.549,209.24599999999998A111.947,111.947 180 1 1 146.658,209.24599999999998zM 258.602,66.927c-78.472,0-142.319,63.847-142.319,142.319c0,16.415, 2.825,32.179, 7.962,46.86L0,256.11 l0-263.509 
	c0-13.587, 11.013-24.6, 24.6-24.6l 462.799,0 c 13.587,0, 24.6,11.013, 24.6,24.6L 512,256.11 l-119.042,0 c 5.134-14.684, 7.962-30.445, 7.962-46.86
	C 400.92,130.774, 337.077,66.927, 258.602,66.927zM 487.4,480L 24.6,480 C 11.013,480,0,468.987,0,455.403L0,290.821 l 142.089,0 C 167.852,327.515, 210.46,351.565, 258.602,351.565
	s 90.753-24.054, 116.513-60.747L 512,290.821 L 512,455.403 C 512,468.987, 500.987,480, 487.4,480z M 418.28,335.947c-20.128,0-36.446,16.318-36.446,36.446
	s 16.318,36.446, 36.446,36.446S 454.726,392.521, 454.726,372.393S 438.408,335.947, 418.28,335.947z" data-tags="instagram" />
<glyph unicode="&#xe017;" d="M 197.208,327.669c0-25.558-20.721-46.283-46.283-46.283c-25.562,0-46.286,20.721-46.286,46.283c0,25.562, 20.721,46.286, 46.286,46.286
	C 176.487,373.955, 197.208,353.23, 197.208,327.669z M 303.257,327.669C 303.257,411.801, 235.046,480, 150.925,480C 66.797,480,-1.402,411.801,-1.402,327.669
	c0-84.125, 152.328-359.669, 152.328-359.669S 303.257,243.544, 303.257,327.669z" horiz-adv-x="301.851" data-tags="location" />
<glyph unicode="&#xe019;" d="M0,194.909c0,6.78,0,13.545,0,20.325c 3.475,42.574, 15.143,85.969, 31.961,117.651
			c 44.079,83.099, 157.479,182.381, 289.047,136.549c 31.899-11.109, 51.184-26.065, 76.428-46.002c 11.667-9.232, 26.050-20.247, 35.685-27.012
			c 11.574-8.099, 23.149,0, 46.22,0.388c 107.225,1.815, 213.008-40.867, 244.007-117.651c 10.55-26.128, 4.344-78.212, 0.605-111.507
			c-4.686-41.798-3.165-33.808-16.57-56.987c-40.51-69.973-145.827-104.991-257.102-97.311c-13.296,0.931-32.985,8.564-43.567,7.261
			c-4.794-0.59-15.562-8.906-21.783-13.064c-48.656-32.535-118.753-55.513-191.721-29.044c-23.18,8.394-40.153,13.653-76.459,29.805
			C 43.396,40.875, 10.612,99.134,0,194.909z M 94.41,354.7c-24.654-30.86-56.63-93.572-52.302-158.332c 3.15-46.794, 22.187-85.132, 49.385-111.833
			c 49.509-48.593, 142.6-52.736, 206.258-14.522c 65.365,39.222, 140.583,148.558, 100.228,261.446c-19.875,55.606-77.017,112.206-168.495,101.671
			C 166.757,425.899, 123.718,391.362, 94.41,354.7z M 505.484,206.53c-2.715-35.219-15.251-65.908-27.601-94.41
			c 83.068,4.422, 142.972,21.38, 181.574,65.35c 32.954,37.578, 31.915,94.161-4.36,130.731c-40.882,41.224-115.774,62.542-194.622,59.547
			C 487.936,331.349, 510.697,274.145, 505.484,206.53z M 232.401,0.287c 72.564-5.725, 125.145,23.459, 164.135,62.448
			c 61.192,61.192, 106.341,191.984, 45.025,274.541C 478.224,164.298, 366.096,31.131, 232.401,0.287z M 699.314,176.849
			c-50.16-65.583-141.188-102.291-240.159-99.654c-5.353-5.198-5.787-6.097-11.574-13.498c-5.368-6.904-11.9-15.438-14.739-19.813
			c 57.639-9.976, 114.672-0.915, 159.791,15.965c 43.985,16.462, 86.776,44.994, 103.486,90.003C 695.792,150.97, 701.021,177.067, 699.314,176.849zM 284.688,334.359c-24.281-69.648-50.967-136.89-75.543-206.243
			c-13.265,5.12-25.972,10.814-40.665,14.522c 13.855,46.67, 32.659,88.39, 47.926,133.648c-14.677,9.045-34.32,13.126-50.828,20.325
			c 2.544,11.016, 8.285,18.82, 10.162,30.503c 27.027-11.031, 68.344-6.78, 75.528,18.882C 263.385,343.063, 273.548,338.238, 284.688,334.359z" horiz-adv-x="729.212" data-tags="money" />
<glyph unicode="&#xe01a;" d="M 149.594,476.582c 84.887,17.032, 154.624-31.578, 169.065-100.728
			c 39.785-190.374-239.465-227.162-273.393-64.753C 27.452,396.439, 81.98,463.014, 149.594,476.582zM 367.782-5.451c0-1.205,0-2.394,0-3.599c-0.482-12.695-2.967-15.194-10.797-17.98
			c-109.417-3.735-252.672-10.571-356.126,3.599c-6.4,1.687-7.032,4.201-7.198,14.396c0,1.205,0,2.394,0,3.599
			c-0.467,101.195, 12.785,188.672, 75.55,226.635c 35.177-38.686, 98.575-55.085, 158.283-39.575c 31.789,8.252, 51.757,25.239, 66.741,38.972
			C 355.464,183.462, 367.42,92.506, 367.782-5.451z" horiz-adv-x="361.412" data-tags="people" />
<glyph unicode="&#xe01b;" d="M 682.667,302.95l0-247.364 c0-52.736-43.145-95.915-95.915-95.915L 95.915-40.329 
	c-52.736,0-95.915,43.145-95.915,95.915L0,302.95 c0,52.736, 43.145,95.915, 95.915,95.915l 97.655,0 L 193.57,416.41 C 193.536,455.97, 225.929,488.329, 265.523,488.329l 149.572,0 
	c 39.561,0, 71.919-32.358, 71.919-71.919l0-17.545 l 99.738,0 C 639.522,398.831, 682.667,355.686, 682.667,302.95z M 342.255,324.898c-72.636,0-131.516-58.88-131.516-131.516
	s 58.914-131.516, 131.516-131.516s 131.516,58.88, 131.516,131.516S 414.891,324.898, 342.255,324.898z" horiz-adv-x="682.667" data-tags="photo" />
<glyph unicode="&#xe01c;" d="M 194.361,109.682c 45.113-33.223, 127.687-13.17, 163.356,16.498
	c 51.428,42.752, 75.179,129.422, 67.584,198.059c-8.476,76.772-82.034,144.526-168.988,154.027C 122.539,492.885, 0.939,412.928,0,285.753
	c-0.455-59.876, 19.371-97.593, 73.216-118.3c 36.807,35.669-6.855,58.795-11.264,99.015C 50.347,373.22, 180.338,475.989, 295.737,409.515
	c 80.384-46.308, 66.759-244.964-30.976-264.078c-19.484-3.84-43.861,2.133-53.504,11.008C 164.807,198.94, 249.714,273.55, 222.521,335.246
	c-23.58,53.476-91.25,10.638-98.588-35.755c-3.982-25.23, 8.363-49.465, 8.448-71.566c 0.199-52.452-33.621-123.847-42.24-176.014
	c-3.328-20.309-6.343-61.924-1.394-83.228C 88.462-31.545, 88.178-31.744, 87.893-32l 35.3,0 c 24.747,40.932, 41.671,102.599, 54.244,155.449
	C 185.23,129.024, 188.132,114.261, 194.361,109.682z" horiz-adv-x="426.667" data-tags="pinterest" />
<glyph unicode="&#xe01d;" d="M 531.321,283.672c0-0.164,0-0.319,0-0.483c-45.075-43.568-90.643-86.605-135.1-130.792
			c 11.148-61.884, 21.958-124.117, 32.932-186.175c-0.164,0-0.319,0-0.483,0c-53.982,30.198-108.476,59.865-162.787,89.755
			c-54.456-29.725-108.959-59.392-162.787-89.755c-0.164,0-0.319,0-0.473,0c 9.515,57.846, 20.287,115.577, 30.546,174.235
			c 0.744,4.289, 2.241,9.4, 1.913,11.448c-0.811,4.801-11.786,12.732-16.229,17.186C 79.911,208.060, 39.211,244.683,0,283.189
			c0,0.164,0,0.319,0,0.483c 61.904,8.588, 123.672,17.311, 185.218,26.257C 212.19,367.138, 238.515,424.984, 265.892,481.778
			c 27.349-56.977, 53.103-115.577, 81.157-171.848C 408.103,300.8, 469.813,292.347, 531.321,283.672z" horiz-adv-x="531.321" data-tags="rate" />
<glyph unicode="&#xe01e;" d="M 351.265-32L-0.45-32L-0.45,311.467L 177.233,480L 351.265,311.467 z" horiz-adv-x="350.815" data-tags="recommend" />
<glyph unicode="&#xe01f;" d="M 502.624,0.004L 480-22.624c-6-6.004-14.14-9.376-22.624-9.376c-8.492,0-16.632,3.372-22.632,9.372
	l-145.244,145.24C 260.92,105.728, 227.6,96, 192,96C 85.96,96,0,181.96,0,288S 85.96,480, 192,480s 192-85.96, 192-192c0-35.604-9.728-68.92-26.608-97.504
	l 145.24-145.24C 515.124,32.756, 515.124,12.5, 502.624,0.004z M 192,160c 70.688,0, 128,57.308, 128,128S 262.688,416, 192,416
	c-70.696,0-128-57.308-128-128S 121.304,160, 192,160z" data-tags="search" />
<glyph unicode="&#xe020;" d="M 128,0L0,0 L0,288 l 128,0 L 128,0 z M 480,272c-18,4-107.5,14-160,16c 32,48, 32,160, 32,160c0,16-14,32-32,32c-18.376,0-25.564-3.688-31.5-7.5
	C 272,416, 253,367.5, 240,352S 160,288, 160,288l0-256 c 24.5-16, 178-64, 256-64c 29,0, 58.4,16.668, 64,32c 9.5,26, 32,162, 32,240
	C 512,252.5, 498,268, 480,272z" data-tags="thumb_up" />
<glyph unicode="&#xe021;" d="M 682.667,243.866c-23.996-4.471-58.812,0.137-77.312,8.533c 38.298,3.447, 64.307,22.391, 74.308,48.162c-13.79-9.216-56.73-19.354-80.384-9.694
	c-1.195,6.042-2.526,11.81-3.789,17.067c-17.988,72.158-79.906,130.355-144.657,123.358c 5.188,2.287, 10.513,4.403, 15.838,6.383
	c 7.1,2.765, 49.015,10.274, 42.359,26.283c-5.564,14.165-56.695-10.684-66.287-13.926c 12.698,5.188, 33.724,14.131, 35.942,30.037
	c-19.422-2.867-38.571-12.937-53.316-27.511c 5.291,6.281, 9.353,13.892, 10.24,22.050c-51.951-36.147-82.33-108.919-106.871-179.61
	C 309.419,315.307, 292.284,331.349, 276.992,340.258c-43.042,25.020-94.447,51.2-175.138,83.866C 99.362,395.076, 115.029,356.369, 160.119,330.667
	C 150.426,332.169, 132.54,328.926, 118.238,325.205c 5.837-33.314, 24.883-60.757, 76.425-74.035c-23.552-1.604-35.738-7.543-46.729-20.070
	c 10.65-23.177, 36.864-50.415, 84.002-44.851c-52.395-24.576-21.367-70.11, 21.299-63.317C 180.531,41.114, 65.877,47.121,0,115.524
	c 171.861-255.010, 545.553-150.767, 601.19,94.857C 642.97,210.039, 667.477,226.082, 682.667,243.866z" horiz-adv-x="682.667" data-tags="twitter" />
<glyph unicode="&#xe022;" d="M 227.556,366.222l 85.333,0 L 312.889,480 L 217.23,480 C 142.222,480, 85.333,423.111, 85.333,366.222l0-56.889 L0,309.333 l0-113.778 l 85.333,0 l0-227.556 l 113.778,0 l0,227.556 l 85.333,0 L 284.444,309.333 L 199.111,309.333 L 199.111,337.778 C 199.111,355.499, 217.828,366.222, 227.556,366.222" horiz-adv-x="312.889" data-tags="facebook" />
<glyph unicode="&#xe023;" d="M 512,443.529L 476.996,478.72L 256.102,259.089L 36.471,480L 1.28,445.013L 220.911,224.102L0,4.471L 34.987-30.703L 255.898,188.894L 475.529-31.983L 510.703,3.004L 291.089,223.898 z" data-tags="close" />
<glyph unicode="&#xe018;" d="M 224.574,477.191c 0.72,0, 1.425,0, 2.145,0c 74.697-20.203, 150.002-39.77, 224.574-60.070
			C 526.059,437.269, 601.406,456.78, 675.895,477.191c 0.706,0, 1.411,0, 2.159,0c0-149.006,0-298.012,0-447.018c-67.376-16.619-130.159-34.47-198.144-52.224
			c-9.091-2.366-20.148-7.085-27.897-7.14c-7.735-0.083-19.027,4.705-28.617,7.14c-58.534,15-110.592,29.973-169.514,45.084
			c-9.313,2.366-20.176,7.14-27.897,7.14c-7.818,0-19.29-4.733-28.603-7.14C 132.165,6.013, 65.744-12.904,0-29.191
			C0,119.594,0,268.336,0,417.121C 74.724,437.269, 150.099,456.78, 224.574,477.191z M 49.36,371.331c0-109.651,0-219.344,0-328.995
			c 49.941,11.804, 97.917,25.572, 146.626,38.608c0,109.914,0,219.814,0,329.714c-0.47,0-0.955,0-1.425,0C 146.515,397.181, 97.391,384.81, 49.36,371.331z
			 M 254.63,408.528c0-109.416,0-218.859,0-328.289c 56.569-13.976, 111.713-29.419, 168.061-43.631c0,110.412,0,220.769,0,331.167
			c-55.268,14.806-111.796,28.368-167.355,42.897C 254.506,410.548, 254.561,409.552, 254.63,408.528z M 480.643,372.065
			c 0.457-109.914-0.955-221.724, 0.706-330.461c 48.031,13.243, 96.214,26.333, 145.173,38.635c-0.443,109.9, 0.955,221.724-0.706,330.434
			C 577.494,397.748, 529.657,384.325, 480.643,372.065z" horiz-adv-x="678.054" data-tags="map" />
<glyph unicode="&#xe024;" d="M 289.28,485.052c0-234.906,0-227.635,0-462.541c 81.903-21.521, 134.161-36.147, 223.556-59.563
		c0,195.994,0,265.95,0,461.943M0,424.892c0-195.977,0-265.933,0-461.943c 89.412,23.433, 141.653,38.042, 223.556,59.563
		c0,234.889,0,227.635,0,462.541M 578.594,424.892c0-195.977,0-265.933,0-461.943c 89.412,23.433, 141.653,38.042, 223.539,59.563
		c0,234.889,0,227.635,0,462.541" horiz-adv-x="802.133" data-tags="map-2" />
<glyph unicode="&#xe025;" d="M 131.289,479.783c 12.544,1.438, 21.484-4.204, 22.981-14.681
			c 0.837-5.947, 0.148-14.178, 0.148-21.346c0-15.232,0-27.323,0-42.988c0-6.814, 0.788-15.429-0.453-20.894
			c-1.95-8.645-8.625-13.479-19.121-13.479c-9.866,0-16.67,5.228-18.373,14.080c-0.61,3.121-0.305,6.853-0.305,10.516
			c0,21.287,0,43.471,0,64.916c0,3.535-0.315,7.394, 0.305,10.368C 117.858,473.049, 123.392,478.878, 131.289,479.783zM 364.869,479.783c 12.436,1.428, 21.386-4.234, 22.981-14.228
			c 0.482-3.013, 0.148-6.814, 0.148-10.663c0-21.868,0-42.289,0-64.325c0-3.732, 0.295-7.434-0.295-10.368c-1.684-8.389-8.694-13.785-18.678-13.785
			c-10.004,0-17.093,4.943-18.964,13.479c-0.66,2.993-0.295,6.892-0.295,10.663c0,21.514,0,43.609,0,65.063c0,3.456-0.345,7.335, 0.295,10.516
			C 351.458,473.167, 356.982,478.878, 364.869,479.783zM 436.45-32c-123.618,0-247.198,0-370.826,0
			c-5.967,0.482-11.589,1.31-16.601,2.816c-4.894,1.457-9.334,3.446-13.637,5.78c-16.226,8.832-29.056,23.582-34.078,43.579
			c-2.57,10.201-1.93,23.631-1.93,36.903c0,96.699,0,194.294,0,291.082c0,6.479-0.276,12.879, 0.453,18.964
			c 2.619,22.174, 14.218,38.164, 29.204,48.473c 7.611,5.238, 16.404,9.374, 27.422,11.412C 67.397,429.036, 80.886,428.042, 93.932,428.052
			c 1.221-20.874-2.983-44.751, 3.407-59.874c 3.003-7.129, 8.044-13.46, 13.932-17.792c 5.977-4.391, 13.794-7.847, 23.857-7.847
			c 10.151,0, 17.861,3.377, 23.857,7.847c 8.812,6.567, 15.793,16.709, 17.339,30.238c 0.551,4.756, 0.148,10.073, 0.148,15.714
			c0,10.437,0,21.189,0,31.714c 0.030,0.177, 0.236,0.167, 0.453,0.148c 42.821,0, 86.38,0, 129.093,0c 6.252,0, 12.465,0.423, 18.521,0
			c 0.276-0.020, 0.857,0.246, 0.886-0.295c0-11.195,0-22.617,0-33.644c0-5.514-0.207-10.545, 0.443-15.114
			c 0.64-4.431, 2.068-8.31, 3.712-12.002c 6.085-13.686, 18.974-24.596, 38.095-24.596c 9.846,0, 17.536,3.663, 23.266,7.995
			c 8.625,6.528, 15.429,16.601, 16.896,29.942c 0.522,4.716, 0.295,9.945, 0.295,15.409c0,10.506-0.118,22.174, 0.148,32.315
			c 14.041-0.207, 28.19,0.807, 39.424-1.487c 10.378-2.117, 19.298-6.597, 26.683-11.993c 14.434-10.565, 25.994-26.594, 28.15-49.211
			c 0.591-6.124, 0.148-12.672, 0.148-19.121c0-96.561,0-193.89,0-289.9c0-13.578, 0.561-26.338-2.078-36.608
			c-2.57-10.043-7.099-18.668-12.889-25.787C 476.406-19.82, 459.993-30.247, 436.45-32z M 35.535,292.283c0-84.549,0-167.089,0-250.476
			c0-10.151, 3.013-17.575, 7.857-23.414c 4.805-5.78, 11.323-9.876, 19.564-11.717c 8.625-1.93, 20.096-0.886, 30.385-0.886
			c 105.068,0, 208.601,0, 313.324,0c 10.388,0, 21.819-1.044, 30.533,0.886c 8.359,1.851, 14.641,5.996, 19.417,11.865
			c 4.844,5.927, 8.005,13.194, 8.005,23.414c0,83.466,0,166.065,0,250.624c-142.651,0.354-286.021,0.049-428.918,0.148
			C 35.515,292.706, 35.525,292.5, 35.535,292.283zM 249.561,244.864c 10.87,0, 21.73,0, 32.601,0c0-66.944,0-133.898,0-200.822
			c-13.726,0-27.471,0-41.196,0c0,43.382,0,86.754,0,130.127c-16.699,0.354-34.048,0.049-50.983,0.148c0,10.23,0,20.45,0,30.69
			c 33.3-0.394, 54.302,11.51, 59.294,39.424C 249.393,244.549, 249.354,244.825, 249.561,244.864z" horiz-adv-x="502.154" data-tags="calendar" />
<glyph unicode="&#xe026;" d="M 28.12,316.12l 320-320c 18.76-18.76, 43.344-28.136, 67.92-28.12c 24.552,0, 49.112,9.376, 67.84,28.12l 320,320
	c 18.752,18.76, 28.128,43.352, 28.12,67.92c-0.008,24.552-9.384,49.12-28.12,67.848C 785.136,470.64, 760.552,480, 735.984,480
	c-24.56-0.016-49.128-9.376-67.864-28.112L 416,199.768L 163.88,451.888C 145.136,470.64, 120.552,480, 95.984,480c-24.56-0.016-49.128-9.376-67.864-28.112
	C 9.376,433.144,0,408.568,0,384C0,359.44, 9.376,334.856, 28.12,316.12z" horiz-adv-x="832" data-tags="arrow-small-down" />
<glyph unicode="&#xe027;" d="M 803.88,131.88l-320,320C 465.128,470.64, 440.536,480.016, 415.96,480c-24.552,0-49.112-9.376-67.84-28.12l-320-320
	C 9.368,113.128-0.008,88.528,0,63.96c 0.008-24.552, 9.384-49.12, 28.12-67.848C 46.864-22.64, 71.448-32, 96.016-32
	c 24.56,0.016, 49.128,9.376, 67.864,28.112L 416,248.232l 252.12-252.128C 686.864-22.64, 711.448-32, 736.016-32c 24.56,0.016, 49.128,9.376, 67.864,28.112
	C 822.624,14.856, 832,39.432, 832,64C 832,88.56, 822.624,113.144, 803.88,131.88z" horiz-adv-x="832" data-tags="arrow-small-up" />
<glyph unicode="&#xe028;" d="M 562.361,312.927L 309.975,312.927L 309.975,479.835L0,224L 309.975-31.836L 309.975,135.074L 562.361,135.074 z" horiz-adv-x="562.361" data-tags="arrow-left" />
<glyph unicode="&#xe029;" d="M0,135.071L 252.387,135.071L 252.387-31.836L 562.361,224L 252.387,479.835L 252.387,312.924L0,312.924 z" horiz-adv-x="562.361" data-tags="arrow-right" />
<glyph unicode="&#x20;" horiz-adv-x="256" />
</font>
</defs>
</svg>
